{"title":"[MARATHI] Canvas 2009 DTHRip XviD 1CD (DDR) ","uid":8770392,"size":731130178,"categoryP":"video","categoryS":"movies","magnet":"?xt=urn:btih:1dacba83c2d6b61f57273dc17491f05914860df7&amp;dn=%5BMARATHI%5D+Canvas+2009+DTHRip+XviD+1CD+%28DDR%29+&amp;tr=udp%3A%2F%2Ftracker.openbittorrent.com%3A80&amp;tr=udp%3A%2F%2Fopen.demonii.com%3A1337&amp;tr=udp%3A%2F%2Ftracker.coppersurfer.tk%3A6969&amp;tr=udp%3A%2F%2Fexodus.desync.com%3A6969","seeders":0,"leechers":2,"uploader":"SJonam","files":1,"time":1375439257,"description":" &lt;a href=&quot;http://desibbrg.org/images/91778228950062594419.png&quot; rel=&quot;nofollow&quot; target=&quot;_NEW&quot;&gt;http://desibbrg.org/images/91778228950062594419.png&lt;/a&gt; &lt;a href=&quot;\nhttp://desibbrg.org/images/94406892109306390129.png&quot; rel=&quot;nofollow&quot; target=&quot;_NEW&quot;&gt;\nhttp://desibbrg.org/images/94406892109306390129.png&lt;/a&gt; &lt;a href=&quot;\nhttp://desibbrg.org/images/81248267361243786074.png&quot; rel=&quot;nofollow&quot; target=&quot;_NEW&quot;&gt;\nhttp://desibbrg.org/images/81248267361243786074.png&lt;/a&gt; &lt;a href=&quot;\nhttp://desibbrg.org/images/67402633968881968001.png&quot; rel=&quot;nofollow&quot; target=&quot;_NEW&quot;&gt;\nhttp://desibbrg.org/images/67402633968881968001.png&lt;/a&gt; &lt;a href=&quot;\nhttp://desibbrg.org/images/75248466669608139351.png&quot; rel=&quot;nofollow&quot; target=&quot;_NEW&quot;&gt;\nhttp://desibbrg.org/images/75248466669608139351.png&lt;/a&gt;\n\nMedia Info - \nGeneral\nComplete name : Canvas - 2009 - DTHRip - XviD - 1CD - [DDR].avi\nFormat : AVI\nFormat/Info : Audio Video Interleave\nFile size : 697 MiB\nDuration : 1h 47mn\nOverall bit rate mode : Variable\nOverall bit rate : 909 Kbps\n\nVideo\nFormat : MPEG-4 Visual\nFormat profile : Advanced Simple@L5\nFormat settings, BVOP : 1\nFormat settings, QPel : No\nFormat settings, GMC : No warppoints\nFormat settings, Matrix : Custom\nCodec ID : XVID\nCodec ID/Hint : XviD\nDuration : 1h 47mn\nBit rate : 824 Kbps\nWidth : 608 pixels\nHeight : 304 pixels\nDisplay aspect ratio : 2.000\nFrame rate : 25.000 fps\nColor space : YUV\nChroma subsampling : 4:2:0\nBit depth : 8 bits\nScan type : Progressive\nCompression mode : Lossy\nBits/(Pixel*Frame) : 0.178\nStream size : 632 MiB (91%)\nWriting library : XviD 1.2.1 (UTC 2008-12-04)\n\nAudio\nFormat : MPEG Audio\nFormat version : Version 1\nFormat profile : Layer 3\nMode : Joint stereo\nCodec ID : 55\nCodec ID/Hint : MP3\nDuration : 1h 47mn\nBit rate mode : Variable\nBit rate : 75.2 Kbps\nNominal bit rate : 80.0 Kbps\nChannel(s) : 2 channels\nSampling rate : 32.0 KHz\nCompression mode : Lossy\nStream size : 57.7 MiB (8%)\nAlignment : Aligned on interleaves\nInterleave, duration : 36 ms (0.90 video frame)\nInterleave, preload duration : 237 ms\nTitle : Canvas Tc0 L2 2ch 48 384 DELAY 0ms\nWriting library : LAME3.99r\nEncoding settings : -m j -V 4 -q 2 -lowpass 13.5 --abr 80\n\nSample - http://www.multiupload.nl/XFMCK7OYON\n\nRipper : IndianHacker\n\nSeeding 24x7... Extreme Seeding...\n\n\nEnjoy!\n","torrent":{"xt":"urn:btih:1dacba83c2d6b61f57273dc17491f05914860df7","amp;dn":"%5BMARATHI%5D+Canvas+2009+DTHRip+XviD+1CD+%28DDR%29+","amp;tr":["udp%3A%2F%2Ftracker.openbittorrent.com%3A80","udp%3A%2F%2Fopen.demonii.com%3A1337","udp%3A%2F%2Ftracker.coppersurfer.tk%3A6969","udp%3A%2F%2Fexodus.desync.com%3A6969"],"infoHash":"1dacba83c2d6b61f57273dc17491f05914860df7","infoHashBuffer":{"type":"Buffer","data":[29,172,186,131,194,214,182,31,87,39,61,193,116,145,240,89,20,134,13,247]},"announce":[],"urlList":[]}}